<svg width="87" height="36" viewBox="0 0 87 36" fill="none" xmlns="http://www.w3.org/2000/svg">
<g clip-path="url(#clip0_260_10237)">
<mask id="mask0_260_10237" style="mask-type:alpha" maskUnits="userSpaceOnUse" x="0" y="0" width="87" height="18">
<path d="M87 0H0V17.5263H87V0Z" fill="white"/>
</mask>
<g mask="url(#mask0_260_10237)">
<path d="M0.567383 26.0526V25.6737L2.57689 24.7026V11.771L0.567383 10.8V10.421H8.1326C9.26738 10.421 10.2761 10.5552 11.1587 10.8237C12.0571 11.0763 12.7584 11.4631 13.2628 11.9842C13.7829 12.4895 14.0429 13.1368 14.0429 13.9263C14.0429 14.7316 13.7356 15.4737 13.1209 16.1526C12.522 16.8315 11.6552 17.3052 10.5204 17.5737C12.0492 17.7789 13.247 18.2289 14.1139 18.9237C14.9965 19.6026 15.4378 20.4631 15.4378 21.5052C15.4378 22.3736 15.1462 23.1552 14.563 23.85C13.9799 24.5289 13.1761 25.0658 12.1516 25.4605C11.1429 25.8552 9.99237 26.0526 8.69999 26.0526H0.567383ZM6.95054 11.7237H6.14673V17.4079H7.09238C8.1326 17.4079 8.9443 17.1631 9.52744 16.6737C10.1106 16.1684 10.4022 15.4895 10.4022 14.6368C10.4022 12.6947 9.25164 11.7237 6.95054 11.7237ZM7.77798 18.5684H6.14673V24.75H7.94347C9.10979 24.75 10.016 24.4579 10.6622 23.8737C11.3242 23.2895 11.6552 22.5394 11.6552 21.6237C11.6552 20.5816 11.3163 19.8157 10.6386 19.3263C9.97662 18.821 9.02308 18.5684 7.77798 18.5684ZM16.4837 26.0526V25.6737L17.9258 24.8684L24.0962 10.3026H26.1766L32.2761 24.821L33.8837 25.6737V26.0526H26.4131V25.6737L28.4698 24.821L26.8622 20.8894H21.2592L19.6516 24.821L21.6139 25.6737V26.0526H16.4837ZM21.803 19.5868H26.3185L24.0726 14.0684L21.803 19.5868ZM35.3829 26.0526V25.6737L37.3924 24.7026V11.771L35.3829 10.8V10.421H43.4446C45.3201 10.421 46.912 10.7289 48.2202 11.3447C49.5281 11.9605 50.521 12.8052 51.199 13.8789C51.8922 14.9526 52.2392 16.1684 52.2392 17.5263C52.2392 18.7579 52.0104 19.8947 51.5536 20.9368C51.112 21.9789 50.4898 22.8789 49.686 23.6368C48.8822 24.3947 47.9365 24.9868 46.8489 25.4131C45.7614 25.8394 44.5715 26.0526 43.2791 26.0526H35.3829ZM42.4753 11.7237H40.9622V24.75H42.8063C44.6345 24.75 46.0451 24.1658 47.0381 22.9973C48.0311 21.8131 48.5276 20.2342 48.5276 18.2605C48.5276 16.271 48.015 14.6842 46.9908 13.5C45.9821 12.3158 44.4769 11.7237 42.4753 11.7237ZM54.3376 26.0526V25.6737L56.3472 24.7026V11.771L54.3376 10.8V10.421H67.2222V14.5184H66.8439L65.0944 11.7237H59.917V17.3368H63.5578L64.8817 15.3H65.2599V20.6289H64.8817L63.5578 18.6395H59.917V24.75H65.6618L67.5059 21.221H67.8841V26.0526H54.3376ZM70.3821 26.0526V25.6737L72.3916 24.7026V11.7947L70.3821 10.8V10.421H74.8739L84.0467 20.7947V11.7473L81.3516 10.8V10.421H87.6875V10.8L85.7016 11.771V26.171H84.2359L74.0465 14.7552V24.7026L76.7416 25.6737V26.0526H70.3821Z" fill="white"/>
</g>
<mask id="mask1_260_10237" style="mask-type:alpha" maskUnits="userSpaceOnUse" x="0" y="18" width="87" height="19">
<path d="M87 18.4738H0V36.0001H87V18.4738Z" fill="white"/>
</mask>
<g mask="url(#mask1_260_10237)">
<path d="M0.567383 27V26.6211L2.57689 25.65V12.7184L0.567383 11.7474V11.3684H8.1326C9.26738 11.3684 10.2761 11.5026 11.1587 11.7711C12.0571 12.0237 12.7584 12.4105 13.2628 12.9316C13.7829 13.4369 14.0429 14.0842 14.0429 14.8737C14.0429 15.6789 13.7356 16.4211 13.1209 17.1C12.522 17.7789 11.6552 18.2526 10.5204 18.5211C12.0492 18.7263 13.247 19.1763 14.1139 19.8711C14.9965 20.55 15.4378 21.4105 15.4378 22.4526C15.4378 23.321 15.1462 24.1026 14.563 24.7974C13.9799 25.4763 13.1761 26.0132 12.1516 26.4079C11.1429 26.8026 9.99237 27 8.69999 27H0.567383ZM6.95054 12.6711H6.14673V18.3553H7.09238C8.1326 18.3553 8.9443 18.1105 9.52744 17.6211C10.1106 17.1158 10.4022 16.4368 10.4022 15.5842C10.4022 13.6421 9.25164 12.6711 6.95054 12.6711ZM7.77798 19.5158H6.14673V25.6974H7.94347C9.10979 25.6974 10.016 25.4052 10.6622 24.8211C11.3242 24.2369 11.6552 23.4868 11.6552 22.5711C11.6552 21.5289 11.3163 20.7631 10.6386 20.2737C9.97662 19.7684 9.02308 19.5158 7.77798 19.5158ZM16.4837 27V26.6211L17.9258 25.8158L24.0962 11.25H26.1766L32.2761 25.7684L33.8837 26.6211V27H26.4131V26.6211L28.4698 25.7684L26.8622 21.8368H21.2592L19.6516 25.7684L21.6139 26.6211V27H16.4837ZM21.803 20.5342H26.3185L24.0726 15.0158L21.803 20.5342ZM35.3829 27V26.6211L37.3924 25.65V12.7184L35.3829 11.7474V11.3684H43.4446C45.3201 11.3684 46.912 11.6763 48.2202 12.2921C49.5281 12.9079 50.521 13.7526 51.199 14.8263C51.8922 15.9 52.2392 17.1158 52.2392 18.4737C52.2392 19.7053 52.0104 20.8421 51.5536 21.8842C51.112 22.9263 50.4898 23.8263 49.686 24.5842C48.8822 25.3421 47.9365 25.9342 46.8489 26.3605C45.7614 26.7868 44.5715 27 43.2791 27H35.3829ZM42.4753 12.6711H40.9622V25.6974H42.8063C44.6345 25.6974 46.0451 25.1132 47.0381 23.9447C48.0311 22.7605 48.5276 21.1816 48.5276 19.2079C48.5276 17.2184 48.015 15.6316 46.9908 14.4474C45.9821 13.2632 44.4769 12.6711 42.4753 12.6711ZM54.3376 27V26.6211L56.3472 25.65V12.7184L54.3376 11.7474V11.3684H67.2222V15.4658H66.8439L65.0944 12.6711H59.917V18.2842H63.5578L64.8817 16.2474H65.2599V21.5763H64.8817L63.5578 19.5868H59.917V25.6974H65.6618L67.5059 22.1684H67.8841V27H54.3376ZM70.3821 27V26.6211L72.3916 25.65V12.7421L70.3821 11.7474V11.3684H74.8739L84.0467 21.7421V12.6947L81.3516 11.7474V11.3684H87.6875V11.7474L85.7016 12.7184V27.1184H84.2359L74.0465 15.7026V25.65L76.7416 26.6211V27H70.3821Z" fill="white"/>
</g>
</g>
<defs>
<clipPath id="clip0_260_10237">
<rect width="87" height="36" fill="white"/>
</clipPath>
</defs>
</svg>
