<svg width="87" height="36" viewBox="0 0 87 36" fill="none" xmlns="http://www.w3.org/2000/svg">
<g clip-path="url(#clip0_260_9902)">
<mask id="mask0_260_9902" style="mask-type:alpha" maskUnits="userSpaceOnUse" x="0" y="0" width="87" height="18">
<path d="M87 0H0V17.5263H87V0Z" fill="white"/>
</mask>
<g mask="url(#mask0_260_9902)">
<path d="M0.567383 26.0527V25.6738L2.57689 24.7027V11.7712L0.567383 10.8001V10.4212H8.1326C9.26738 10.4212 10.2761 10.5554 11.1587 10.8238C12.0571 11.0764 12.7584 11.4633 13.2628 11.9843C13.7829 12.4896 14.0429 13.1369 14.0429 13.9264C14.0429 14.7317 13.7356 15.4738 13.1209 16.1527C12.522 16.8317 11.6552 17.3053 10.5204 17.5738C12.0492 17.779 13.247 18.229 14.1139 18.9238C14.9965 19.6027 15.4378 20.4633 15.4378 21.5054C15.4378 22.3738 15.1462 23.1553 14.563 23.8501C13.9799 24.529 13.1761 25.0659 12.1516 25.4606C11.1429 25.8553 9.99237 26.0527 8.69999 26.0527H0.567383ZM6.95054 11.7238H6.14673V17.408H7.09238C8.1326 17.408 8.9443 17.1632 9.52744 16.6738C10.1106 16.1685 10.4022 15.4896 10.4022 14.6369C10.4022 12.6948 9.25164 11.7238 6.95054 11.7238ZM7.77798 18.5685H6.14673V24.7501H7.94347C9.10979 24.7501 10.016 24.458 10.6622 23.8738C11.3242 23.2896 11.6552 22.5396 11.6552 21.6238C11.6552 20.5817 11.3163 19.8159 10.6386 19.3264C9.97662 18.8211 9.02308 18.5685 7.77798 18.5685ZM16.4837 26.0527V25.6738L17.9258 24.8685L24.0962 10.3027H26.1766L32.2761 24.8211L33.8837 25.6738V26.0527H26.4131V25.6738L28.4698 24.8211L26.8622 20.8896H21.2592L19.6516 24.8211L21.6139 25.6738V26.0527H16.4837ZM21.803 19.5869H26.3185L24.0726 14.0685L21.803 19.5869ZM35.3829 26.0527V25.6738L37.3924 24.7027V11.7712L35.3829 10.8001V10.4212H43.4446C45.3201 10.4212 46.912 10.7291 48.2202 11.3448C49.5281 11.9606 50.521 12.8053 51.199 13.879C51.8922 14.9527 52.2392 16.1685 52.2392 17.5264C52.2392 18.758 52.0104 19.8948 51.5536 20.9369C51.112 21.979 50.4898 22.879 49.686 23.6369C48.8822 24.3948 47.9365 24.9869 46.8489 25.4133C45.7614 25.8396 44.5715 26.0527 43.2791 26.0527H35.3829ZM42.4753 11.7238H40.9622V24.7501H42.8063C44.6345 24.7501 46.0451 24.1659 47.0381 22.9975C48.0311 21.8133 48.5276 20.2343 48.5276 18.2606C48.5276 16.2712 48.015 14.6843 46.9908 13.5001C45.9821 12.3159 44.4769 11.7238 42.4753 11.7238ZM54.3376 26.0527V25.6738L56.3472 24.7027V11.7712L54.3376 10.8001V10.4212H67.2222V14.5185H66.8439L65.0944 11.7238H59.917V17.3369H63.5578L64.8817 15.3001H65.2599V20.629H64.8817L63.5578 18.6396H59.917V24.7501H65.6618L67.5059 21.2211H67.8841V26.0527H54.3376ZM70.3821 26.0527V25.6738L72.3916 24.7027V11.7948L70.3821 10.8001V10.4212H74.8739L84.0467 20.7948V11.7475L81.3516 10.8001V10.4212H87.6875V10.8001L85.7016 11.7712V26.1711H84.2359L74.0465 14.7554V24.7027L76.7416 25.6738V26.0527H70.3821Z" fill="white"/>
</g>
<mask id="mask1_260_9902" style="mask-type:alpha" maskUnits="userSpaceOnUse" x="0" y="18" width="87" height="18">
<path d="M87 18.4736H0V35.9999H87V18.4736Z" fill="white"/>
</mask>
<g mask="url(#mask1_260_9902)">
<path d="M0.567383 27V26.6211L2.57689 25.65V12.7184L0.567383 11.7474V11.3684H8.1326C9.26738 11.3684 10.2761 11.5026 11.1587 11.7711C12.0571 12.0237 12.7584 12.4105 13.2628 12.9316C13.7829 13.4369 14.0429 14.0842 14.0429 14.8737C14.0429 15.6789 13.7356 16.4211 13.1209 17.1C12.522 17.7789 11.6552 18.2526 10.5204 18.5211C12.0492 18.7263 13.247 19.1763 14.1139 19.8711C14.9965 20.55 15.4378 21.4105 15.4378 22.4526C15.4378 23.321 15.1462 24.1026 14.563 24.7974C13.9799 25.4763 13.1761 26.0132 12.1516 26.4079C11.1429 26.8026 9.99237 27 8.69999 27H0.567383ZM6.95054 12.6711H6.14673V18.3553H7.09238C8.1326 18.3553 8.9443 18.1105 9.52744 17.6211C10.1106 17.1158 10.4022 16.4368 10.4022 15.5842C10.4022 13.6421 9.25164 12.6711 6.95054 12.6711ZM7.77798 19.5158H6.14673V25.6974H7.94347C9.10979 25.6974 10.016 25.4052 10.6622 24.8211C11.3242 24.2369 11.6552 23.4868 11.6552 22.5711C11.6552 21.5289 11.3163 20.7631 10.6386 20.2737C9.97662 19.7684 9.02308 19.5158 7.77798 19.5158ZM16.4837 27V26.6211L17.9258 25.8158L24.0962 11.25H26.1766L32.2761 25.7684L33.8837 26.6211V27H26.4131V26.6211L28.4698 25.7684L26.8622 21.8368H21.2592L19.6516 25.7684L21.6139 26.6211V27H16.4837ZM21.803 20.5342H26.3185L24.0726 15.0158L21.803 20.5342ZM35.3829 27V26.6211L37.3924 25.65V12.7184L35.3829 11.7474V11.3684H43.4446C45.3201 11.3684 46.912 11.6763 48.2202 12.2921C49.5281 12.9079 50.521 13.7526 51.199 14.8263C51.8922 15.9 52.2392 17.1158 52.2392 18.4737C52.2392 19.7053 52.0104 20.8421 51.5536 21.8842C51.112 22.9263 50.4898 23.8263 49.686 24.5842C48.8822 25.3421 47.9365 25.9342 46.8489 26.3605C45.7614 26.7868 44.5715 27 43.2791 27H35.3829ZM42.4753 12.6711H40.9622V25.6974H42.8063C44.6345 25.6974 46.0451 25.1132 47.0381 23.9447C48.0311 22.7605 48.5276 21.1816 48.5276 19.2079C48.5276 17.2184 48.015 15.6316 46.9908 14.4474C45.9821 13.2632 44.4769 12.6711 42.4753 12.6711ZM54.3376 27V26.6211L56.3472 25.65V12.7184L54.3376 11.7474V11.3684H67.2222V15.4658H66.8439L65.0944 12.6711H59.917V18.2842H63.5578L64.8817 16.2474H65.2599V21.5763H64.8817L63.5578 19.5868H59.917V25.6974H65.6618L67.5059 22.1684H67.8841V27H54.3376ZM70.3821 27V26.6211L72.3916 25.65V12.7421L70.3821 11.7474V11.3684H74.8739L84.0467 21.7421V12.6947L81.3516 11.7474V11.3684H87.6875V11.7474L85.7016 12.7184V27.1184H84.2359L74.0465 15.7026V25.65L76.7416 26.6211V27H70.3821Z" fill="white"/>
</g>
</g>
<defs>
<clipPath id="clip0_260_9902">
<rect width="87" height="36" fill="white"/>
</clipPath>
</defs>
</svg>
